<?xml version="1.0" encoding="utf-8"?>
<!-- Generator: Adobe Illustrator 25.3.1, SVG Export Plug-In . SVG Version: 6.00 Build 0)  -->
<svg version="1.1" id="Layer_1" xmlns="http://www.w3.org/2000/svg" xmlns:xlink="http://www.w3.org/1999/xlink" x="0px" y="0px"
	 width="1655.3px" height="443px" viewBox="0 0 1655.3 443" style="enable-background:new 0 0 1655.3 443;" xml:space="preserve">
<style type="text/css">
	.st0{fill:#E6E7E8;}
	.st1{fill:#BBBDBF;}
</style>
<g>
	<polygon class="st0" points="906.3,178.8 1367.3,155.5 1333.9,237.4 1655.3,306.6 1192,304.2 1216.4,233 	"/>
	<g>
		<path class="st1" d="M321.4,0c-17.6,48.5-20.2,106.9-6.8,164.3c16.7,71.3,56.4,136,111.9,182c3.7,3.3,7.6,6.5,11.5,9.7
			c0.8,0.7,1.7,1.3,2.5,2l6.8-8.7c-0.8-0.6-1.6-1.3-2.4-1.9c0,0,0,0,0,0c0,0,0,0-0.1,0c-3.8-3.1-7.5-6.2-11.1-9.4l-0.1-0.1
			c-53.7-44.6-92.1-107.1-108.3-176.1C312,105,315,47.2,333.1,0H321.4z"/>
		<path class="st1" d="M139.9,10.3c3.9,76.4,29.3,144.2,49.9,187.5c26.2,55.2,55.2,93.9,72,110.2c2.1,2,4.9,3.1,7.8,3
			c2.9-0.1,5.7-1.5,7.6-3.7c3.7-4.3,3.3-10.7-0.7-14.6c-15.6-15.1-42.8-51.3-67.7-104C189,147.2,164.8,82.4,161.1,9.2
			c-0.2-3.1-0.3-6.2-0.3-9.2h-21.3C139.6,3.4,139.7,6.9,139.9,10.3z"/>
		<path class="st1" d="M445.7,321c-32.8-39.9-56.7-90.6-69.3-146.6c-10.1-45-11.9-91.3-5.1-130.2c2.9-16.4,7.2-31.3,12.8-44.2H372
			c-5,12.6-8.9,26.7-11.6,42.3c-7,40.3-5.1,88.1,5.2,134.5c12.9,57.7,37.6,110,71.5,151.2c33.8,41.1,74.8,69.5,122.1,84.6
			c-72.3,10.4-143.5,1.7-207.3-25.3l-0.2-0.1c-0.3-0.1-26.1-9.8-40-19.3c-8.8-6-19.2-6.5-26.6-1.3c-8.3,5.9-11.1,17.4-7.5,30.8
			l0,0.2c3.3,11,8,22.5,14,34.2c-45.6-14.8-79-62.7-102.2-146.5l-0.9-3.3l-1-0.2c0,0,0-0.1,0-0.1c-3.3-11.8-10.5-19.8-18.6-20.9
			c-3.9-0.5-11.4,0.1-17.7,10.3l-0.3,0.5l-0.2,0.5c-2.7,7.1-5.1,14.4-7.2,21.6c-6.7,20.4-10.6,44.4-11.6,71.2
			c-0.1,1.5-1.2,2-1.6,2.2c-0.8,0.3-1.6,0.1-2.1-0.5C101,337.1,86.7,298,84.6,246.9c-1.8-45.2,6.1-98.8,24.1-163.7
			c1.2-4.5-0.3-9.2-3.9-12c-3.6-2.8-8.5-3.2-12.4-0.9C77.4,78.7,49,95.2,27,111.1c-3.2,2.3-7.3,2.6-10.8,0.6
			c-3.4-1.9-5.4-5.3-5.2-9.2C12.2,83,20.2,47.9,39.6,7.4C40.8,4.9,42,2.5,43.3,0H30.9C9.7,43.3,1.2,80.6,0,101.9
			c-0.5,8.1,3.7,15.6,10.9,19.5c7.2,4,15.9,3.4,22.5-1.4C55.1,104.5,83,88.2,97.8,79.9c0.1,0,0.1,0,0.1,0c0,0,0.1,0.1,0.2,0.1
			c0,0,0.1,0.1,0,0.3C79.7,146.4,71.7,201,73.6,247.4c2.1,53,17.8,95.7,46.5,126.7c3.6,3.9,9,5.2,14.1,3.3c5.1-1.9,8.6-6.7,8.8-12.1
			c1.2-32.2,6.7-54.9,11.1-68.3l0.1-0.2c2-6.8,4.3-13.7,6.8-20.4c1.4-2.1,3.8-5.1,6.5-4.8c2.9,0.4,7.1,4.6,9.5,13
			c0.3,1.2,1,3.4,2.3,5.1c24.3,87.1,60.2,137.1,109.7,152.8c1.1,0.3,2.2,0.5,3.3,0.5c3.1,0,6-1.3,8.1-3.8c2.9-3.4,3.4-8.2,1.3-12.2
			c-5.8-11.1-10.3-22.1-13.4-32.5c-2.3-8.7-1.1-15.8,3.2-18.8c3.6-2.6,9-2,14,1.4c14.6,10.1,40.1,19.7,42.3,20.5
			c73.1,31,155.6,38.5,238.4,21.7l-1.1-5.4l1.2-5.4C530.8,396.5,483.6,367.1,445.7,321z"/>
	</g>
</g>
</svg>
