<?xml version="1.0" encoding="utf-8"?>
<!-- Generator: Adobe Illustrator 27.2.0, SVG Export Plug-In . SVG Version: 6.00 Build 0)  -->
<svg version="1.1" id="Layer_2_00000141430727929137652250000014135540997267696557_"
	 xmlns="http://www.w3.org/2000/svg" xmlns:xlink="http://www.w3.org/1999/xlink" x="0px" y="0px" viewBox="0 0 964.9 312.8"
	 style="enable-background:new 0 0 964.9 312.8;" xml:space="preserve">
<style type="text/css">
	.st0{fill:#DC3D43;}
	.st1{fill:#11AF4B;}
</style>
<g>
	<g>
		<path d="M319,197.6c1.1,9.6,8.7,16.6,21.2,16.6c6.5,0,14.9-2.7,19-7.3l11.2,12.2c-7.5,8.5-19.7,12.7-30.4,12.7
			c-24.4,0-38.9-16.6-38.9-41.6c0-23.8,14.7-40.8,37.7-40.8c23.8,0,38.6,16.1,35.9,48.3h-55.6v-0.1H319z M357.6,181.7
			c-1.1-10.1-8.4-15.2-18.4-15.2c-9.5,0-17.2,5.1-19.8,15.2H357.6z"/>
		<path d="M585,189.2v43.4h-7.8V119.8c14.8,0,24.4,0,39.2,0c44,0,44,69.4,0,69.4H585z M585,128v53.2h31.4c30.7,0,33.8-53.2,0-53.2
			C616.5,128,585,128,585,128z"/>
		<path d="M650.6,191.1c0-25.5,17.4-41.6,38.9-41.6c21.6,0,38.9,16.3,38.9,41.6s-17.4,41-38.9,41S650.6,216.4,650.6,191.1z
			 M721.1,191.1c0-20.7-14.2-34.2-31.4-34.2s-31.4,13.4-31.4,34.2s14.2,33.3,31.4,33.3C706.9,224.3,721.1,211.8,721.1,191.1z"/>
		<path d="M810.7,231.8h-7.9l-11.7-35.6l-8.7-31.7l-9.1,31.8l-11.7,35.5h-7.9L728,150.4h7.9l21.8,72.1l22.2-72.1h5.2l21.9,72.1
			l21.7-72.1h7.9L810.7,231.8z"/>
		<path d="M839.2,190.4c0-23.8,16.3-41,36.5-41s38.3,13.7,35.5,44.7h-64.7c1.5,18.7,14.4,29.4,29.2,29.4c9.5,0,20.5-4.2,25.9-12.1
			l5.1,4.6c-7,10.1-19.5,15.3-31,15.3C855.5,231.3,839.2,215.7,839.2,190.4z M904.7,187.2c-0.1-19.5-11.8-30.5-29-30.5
			c-14.8,0-27.6,11.1-29.2,30.6h58.2V187.2z"/>
		<path d="M517.2,150.3c-6.2,0-11.3,1-15.6,2.8v-33.3h-17.7v69.5v42.4h17.7l0,0v-42.6c0.1-14.4,6-20.5,16.3-20.5s15,6.2,15,20.8
			v42.3h17.7v-42.4C550.5,165.7,541.9,150.3,517.2,150.3z"/>
		<path d="M444.8,181.4c-9.5-0.6-13.9-3.4-13.9-8.5c0-4.9,4.8-8.7,13.7-8.7c7.1,0,13.2,2.8,18.5,8l10.3-12.6
			c-8.6-7.9-17.4-10.2-29.1-10.2c-13.7,0-31.5,6.3-31.5,24.3c0,17.6,16.8,22.9,30.9,24c10.6,0.6,13.3,2.8,13.3,8.1
			c0,5.7-5.3,9.2-12.2,9.1H429h-12h-3.6c-6.7,0.1-11.7-3.4-11.7-9.1v-86H384v86.5c0,13.7,12.3,25.5,29.3,25.5h3.7h12h15.8
			c17.7,0,30.4-11.8,30.4-25.5C475.3,185.8,459,182.4,444.8,181.4z"/>
		<polygon points="293.3,119.7 270.3,193.8 269,197.7 267.8,193.6 245.1,119.7 229.4,119.7 207.4,193.6 206.3,197.7 205,193.8 
			181.3,119.7 162.5,119.7 199,231.8 213.5,231.8 236.1,160.5 237.4,156.6 238.6,160.5 261.8,231.8 276.2,231.8 312,119.7 		"/>
		<path d="M964.9,149.8c-2-0.2-3.9-0.4-5.9-0.4c-9.2,0-22.5,4.3-27.1,15.3l-0.2-14.5h-6.8v81.4h7.1v-47.4c0-14.8,13.6-27.2,27-27.2
			c2.2,0,4.1,0.1,5.9,0.4V149.8z"/>
	</g>
	<path class="st0" d="M168.7,42.8c-11.1,0.8-13.5,5.2-24.6,3.6c-6.3-0.9-11.9-5.2-14.3-8.3c-2.4-3.2-8.3-9.1-15.1-11.9
		c-6.8-2.8-8.3-4.4-56.4,2C10.3,34.5,0,0,0,0c-0.7,15.8,9.2,20.7,11.6,33.5c3.2,16.8,35.7,18,35.7,18s-25,16.4-13.8,43.3
		c11.1,27,40.5,22.2,75.8,40.5s16.3,66.7,16.3,66.7c23.4-18.3,29-48.8,20.6-69.8c-8.3-21-31.5-29.1-31.5-29.1s15.7-2.2,20.8-3
		c5.2-0.8,11.1-0.8,18.3,0.4c7.1,1.2,0.8,10.3,0.8,10.3c9.1-1.6,15.1-10.7,15.9-16.3c0.8-5.6-4.4-7.9-7.1-7.9
		c-2.8,0-14.3,5.2-23,7.1c-8.7,2-13.8,1.6-19.7-1.5c-6.3-3.3-11.8-7.1-11.7-16.4c0.1-5.2,3.6-10.7,9.5-14.3c5.9-3.6,19-5.6,32.9,0.4
		s21.8,3.6,25.8,1.2c4-2.4,4.8-9.1,4.8-9.1c7.9-5.6,18.2-0.8,18.2-0.8C190.2,44.8,179.9,42,168.7,42.8z M108.8,52.5
		c-5.3-0.6-2.3-7.8-2.3-7.8c-3.3-0.8-4.6-5.8-4.6-5.8c3.3,1.9,13.2,5,15.5,5.8s3,1.7,3,1.7C120.6,49.2,114,53.1,108.8,52.5z"/>
	<path class="st1" d="M124,104.4c0,0,18.9,6.2,26.6,27.7c7.7,21.3,2.8,51.6-20.6,69.8C192.3,162.8,153.1,102,124,104.4z"/>
	<polygon class="st1" points="126.3,79.3 231.4,59.1 215.2,75.3 275.1,68.2 178.7,93.2 195.3,76.5 	"/>
	<g>
		<g>
			<path d="M198.4,301.4v-37.2h10.7c11.9,0,19.9,7.4,19.9,18.6s-7.9,18.6-19.7,18.6H198.4z M203.4,268.4v28.9h5.9
				c8.8,0,14.7-5.8,14.7-14.4s-5.9-14.4-14.9-14.4H203.4z"/>
			<path d="M257.5,287c0,1-0.1,2-0.1,2.5h-19.2v0.1c0.2,5.1,3.6,8.3,9,8.3c3.5,0,7.2-1,9.4-2.4v4.4c-2,1.1-5.5,2.2-9.7,2.2
				c-8.2,0-13.7-5.5-13.7-13.6c0-7.8,5.5-13.6,12.7-13.6C253.4,274.9,257.5,280.6,257.5,287z M245.7,279c-4.4,0-7.1,3.4-7.6,7.1
				h14.5C252.8,282.4,250.3,279,245.7,279z"/>
			<path d="M285,275.6L273.4,302h-2.6l-11.6-26.5h5.1c2.6,6.3,5.5,13.1,7.8,18.9c2.3-5.8,5.1-12.6,7.8-18.9H285z"/>
			<path d="M311.3,287c0,1-0.1,2-0.1,2.5h-19.2v0.1c0.2,5.1,3.6,8.3,9,8.3c3.5,0,7.2-1,9.4-2.4v4.4c-2,1.1-5.5,2.2-9.7,2.2
				c-8.2,0-13.7-5.5-13.7-13.6c0-7.8,5.5-13.6,12.7-13.6C307.2,274.9,311.3,280.6,311.3,287z M299.5,279c-4.4,0-7.1,3.4-7.6,7.1
				h14.5C306.6,282.4,304.1,279,299.5,279z"/>
			<path d="M317.8,264.2h4.8v29.6c0,2.8,0.9,3.9,3,3.9c1,0,2-0.2,2.3-0.3v4.1c-0.3,0.1-1.6,0.5-3.5,0.5c-3.8,0-6.6-2-6.6-7.2V264.2z
				"/>
			<path d="M357.8,288.5c0,7.8-5.6,13.6-13.3,13.6c-7.7,0-13.3-5.7-13.3-13.6s5.6-13.6,13.3-13.6
				C352.2,274.9,357.8,280.7,357.8,288.5z M353.2,288.5c0-5.5-3.7-9.4-8.7-9.4c-5,0-8.6,3.9-8.6,9.4c0,5.5,3.7,9.4,8.6,9.4
				C349.5,297.9,353.2,294,353.2,288.5z"/>
			<path d="M364.6,275.6h4.4l0.1,2.7c0,1.1-0.2,1.9-0.2,1.9h0.1c1.3-2.7,5-5.2,9.2-5.2c6.8,0,12,5.5,12,13.6
				c0,8.1-5.2,13.6-11.9,13.6c-4.2,0-7.6-2.4-9-5.1h-0.1c0,0,0.2,0.8,0.2,2.1v13.7h-4.8V275.6z M385.6,288.5c0-5.4-3.2-9.4-8-9.4
				c-3.9,0-8.1,2.9-8.1,9.4s4.2,9.4,8.1,9.4C382.4,297.9,385.6,294,385.6,288.5z"/>
			<path d="M397.6,296.2c1.8,0,3,1.2,3,2.9c0,1.7-1.2,2.9-3,2.9c-1.8,0-3-1.2-3-2.9C394.6,297.4,395.8,296.2,397.6,296.2z"/>
			<path d="M420.5,301.4v-37.2h10.7c11.9,0,19.9,7.4,19.9,18.6s-7.9,18.6-19.7,18.6H420.5z M425.4,268.4v28.9h5.9
				c8.8,0,14.7-5.8,14.7-14.4s-5.9-14.4-14.9-14.4H425.4z"/>
			<path d="M479.5,287c0,1-0.1,2-0.1,2.5h-19.2v0.1c0.2,5.1,3.6,8.3,9,8.3c3.5,0,7.2-1,9.4-2.4v4.4c-2,1.1-5.5,2.2-9.7,2.2
				c-8.2,0-13.7-5.5-13.7-13.6c0-7.8,5.5-13.6,12.7-13.6C475.4,274.9,479.5,280.6,479.5,287z M467.8,279c-4.4,0-7.1,3.4-7.6,7.1
				h14.5C474.8,282.4,472.4,279,467.8,279z"/>
			<path d="M486.1,264.2h4.8v29.6c0,2.8,0.9,3.9,3,3.9c1,0,2-0.2,2.3-0.3v4.1c-0.3,0.1-1.6,0.5-3.5,0.5c-3.8,0-6.6-2-6.6-7.2V264.2z
				"/>
			<path d="M504,265.1c1.8,0,3,1.2,3,2.9c0,1.7-1.2,2.9-3,2.9c-1.8,0-3-1.2-3-2.9C501,266.3,502.2,265.1,504,265.1z M506.4,275.6
				v25.9h-4.8v-25.9H506.4z"/>
			<path d="M536.3,275.6L524.7,302h-2.6l-11.6-26.5h5.1c2.6,6.3,5.5,13.1,7.8,18.9c2.3-5.8,5.1-12.6,7.8-18.9H536.3z"/>
			<path d="M562.6,287c0,1-0.1,2-0.1,2.5h-19.2v0.1c0.2,5.1,3.6,8.3,9,8.3c3.5,0,7.2-1,9.4-2.4v4.4c-2,1.1-5.5,2.2-9.7,2.2
				c-8.2,0-13.7-5.5-13.7-13.6c0-7.8,5.5-13.6,12.7-13.6C558.5,274.9,562.6,280.6,562.6,287z M550.8,279c-4.4,0-7.1,3.4-7.6,7.1
				h14.5C557.8,282.4,555.4,279,550.8,279z"/>
			<path d="M568.8,275.6h4.5l0.1,3.6c0.1,1-0.1,1.8-0.1,1.9h0.1c1.5-3.7,4.2-6.2,8-6.2c0.7,0,1.3,0.1,1.6,0.2v4.7
				c-0.2-0.1-0.7-0.2-1.3-0.2c-5,0-7.9,5.5-7.9,10.6v11.3h-4.8V275.6z"/>
			<path d="M588.9,296.2c1.8,0,3,1.2,3,2.9c0,1.7-1.2,2.9-3,2.9c-1.8,0-3-1.2-3-2.9C585.9,297.4,587.1,296.2,588.9,296.2z"/>
			<path d="M624,263.6h0.1l17.2,37.9H636l-3.7-8.3h-16.6l-3.6,8.3h-5.3L624,263.6z M630.5,289.1c-2.5-5.7-4.4-10.1-6.5-15.4
				c-2.1,5.3-4,9.7-6.5,15.4H630.5z"/>
			<path d="M651.1,290.4c-4.6-1.5-7.8-3.5-7.8-8.1c0-4.3,3.9-7.3,9.3-7.3c2.8,0,5.5,0.7,7.3,1.6v4.3c-1.9-1-4.4-1.8-6.8-1.8
				c-2.9,0-5.3,1-5.3,3.4c0,2.1,1.8,3.1,5.3,4.2c5.5,1.8,8.2,3.8,8.2,8.2c0,4.7-3.8,7.3-9.4,7.3c-3.4,0-6.4-0.7-8.4-1.7v-4.4
				c2.5,1.2,5.8,2.1,8.3,2.1c2.7,0,5.1-0.9,5.1-3.4C656.9,292.5,654.9,291.6,651.1,290.4z"/>
			<path d="M673.4,290.4c-4.6-1.5-7.8-3.5-7.8-8.1c0-4.3,3.9-7.3,9.3-7.3c2.8,0,5.5,0.7,7.3,1.6v4.3c-1.9-1-4.4-1.8-6.8-1.8
				c-2.9,0-5.3,1-5.3,3.4c0,2.1,1.8,3.1,5.3,4.2c5.5,1.8,8.2,3.8,8.2,8.2c0,4.7-3.8,7.3-9.4,7.3c-3.4,0-6.4-0.7-8.4-1.7v-4.4
				c2.5,1.2,5.8,2.1,8.3,2.1c2.7,0,5.1-0.9,5.1-3.4C679.1,292.5,677.2,291.6,673.4,290.4z"/>
			<path d="M712.1,287c0,1-0.1,2-0.1,2.5h-19.2v0.1c0.2,5.1,3.6,8.3,9,8.3c3.5,0,7.2-1,9.4-2.4v4.4c-2,1.1-5.5,2.2-9.7,2.2
				c-8.2,0-13.7-5.5-13.7-13.6c0-7.8,5.5-13.6,12.7-13.6C708.1,274.9,712.1,280.6,712.1,287z M700.4,279c-4.4,0-7.1,3.4-7.6,7.1
				h14.5C707.4,282.4,705,279,700.4,279z"/>
			<path d="M719.2,275.6v-7.8h4.7v7.8h7.8v3.9h-7.8v13.4c0,3.7,1.7,4.9,3.8,4.9c1.6,0,3.4-0.5,4.9-1.1v4.2c-1.1,0.6-3.3,1.2-5.8,1.2
				c-3.7,0-7.7-1.9-7.7-7.7v-14.8h-4.2v-3.9H719.2z"/>
			<path d="M756.6,277.7l-1-1.2v24.9h-4.8v-37.9h0.1l16.9,20.6l16.9-20.6h0.1v37.9h-4.8v-24.9l-1,1.2l-11.2,13.5L756.6,277.7z"/>
			<path d="M793,276.8c1.4-0.8,4.9-1.9,9.1-1.9c7.3,0,10.9,3.5,10.9,10v16.5h-4.4l-0.1-3.1c-0.1-1.2,0.2-2.1,0.2-2.1h-0.1
				c-0.3,0.7-3.2,5.7-9,5.7c-4.8,0-8.2-2.8-8.2-7.6c0-6.3,6.1-9.5,16.9-8v-1.3c0-4.5-2.7-6.1-6.8-6.1c-3.6,0-6.9,1.2-8.4,2.2V276.8z
				 M808.1,289.8c-8.4-1.3-12,0.9-12,4.4c0,2.3,1.7,3.9,4.2,3.9C804.7,298.2,808.1,293.9,808.1,289.8z"/>
			<path d="M825.4,275.6l0.1,3.6c0,1.1-0.2,1.9-0.2,2h0.1c1-2.3,4.4-6.2,9.9-6.2c6.4,0,8.8,3.8,8.8,10.2v16.2h-4.8v-15.3
				c0-3.6-0.6-6.8-4.9-6.8c-5.1,0-8.7,4-8.7,9.3v12.7h-4.8v-25.9H825.4z"/>
			<path d="M851.5,276.8c1.4-0.8,4.9-1.9,9.1-1.9c7.3,0,10.9,3.5,10.9,10v16.5H867l-0.1-3.1c-0.1-1.2,0.2-2.1,0.2-2.1H867
				c-0.3,0.7-3.2,5.7-9,5.7c-4.8,0-8.2-2.8-8.2-7.6c0-6.3,6.1-9.5,16.9-8v-1.3c0-4.5-2.7-6.1-6.8-6.1c-3.6,0-6.9,1.2-8.4,2.2V276.8z
				 M866.6,289.8c-8.4-1.3-12,0.9-12,4.4c0,2.3,1.7,3.9,4.2,3.9C863.2,298.2,866.6,293.9,866.6,289.8z"/>
			<path d="M890.8,297.4c6.6,0.7,10.3,2.7,10.3,7.4c0,5-5.1,8-12.4,8c-7,0-11.8-2.4-11.8-7c0-3.1,3.2-5.6,7.1-6.4
				c-2.5-0.3-4-1.6-4-3.3c0-1.5,1.3-2.9,3.6-3.6c-3.7-1.3-6.1-4.4-6.1-8.4c0-5.4,4.6-9.2,10.5-9.2c1.4,0,2.9,0.2,4.1,0.6h9.4v3.6
				h-3.6c-0.7,0-1.4-0.2-1.4-0.2l-0.3-0.1c1.4,1.3,2.3,3.1,2.3,5.2c0,5.1-4,8.7-9.5,9h-0.1c-2.3,0.2-4.2,1.1-4.2,2.1
				C884.7,296.5,886.3,296.9,890.8,297.4z M896.2,305.1c0-2.4-2.1-4.2-7.9-4.2c-4,0-6.9,2-6.9,4.3c0,2.7,3,4.1,7.2,4.1
				C893.3,309.3,896.2,307.6,896.2,305.1z M894,284.2c0-3.2-2.4-5.6-6.1-5.6c-3.5,0-6,2.4-6,5.6s2.5,5.5,6,5.5
				C891.5,289.7,894,287.4,894,284.2z"/>
			<path d="M928.8,287c0,1-0.1,2-0.1,2.5h-19.2v0.1c0.2,5.1,3.6,8.3,9,8.3c3.5,0,7.2-1,9.4-2.4v4.4c-2,1.1-5.5,2.2-9.7,2.2
				c-8.2,0-13.7-5.5-13.7-13.6c0-7.8,5.5-13.6,12.7-13.6C924.7,274.9,928.8,280.6,928.8,287z M917,279c-4.4,0-7.1,3.4-7.6,7.1H924
				C924.1,282.4,921.6,279,917,279z"/>
			<path d="M936,296.2c1.8,0,3,1.2,3,2.9c0,1.7-1.2,2.9-3,2.9c-1.8,0-3-1.2-3-2.9C933,297.4,934.2,296.2,936,296.2z"/>
		</g>
	</g>
</g>
</svg>
