<?xml version="1.0" encoding="utf-8"?>
<!-- Generator: Adobe Illustrator 25.3.1, SVG Export Plug-In . SVG Version: 6.00 Build 0)  -->
<svg version="1.1" id="Layer_1" xmlns="http://www.w3.org/2000/svg" xmlns:xlink="http://www.w3.org/1999/xlink" x="0px" y="0px"
	 width="1920px" height="950px" viewBox="0 0 1920 950" style="enable-background:new 0 0 1920 950;" xml:space="preserve">
<style type="text/css">
	.st0{clip-path:url(#SVGID_2_);}
	.st1{fill:none;stroke:#00B04C;stroke-width:5.2418;stroke-miterlimit:10;}
	.st2{fill:url(#SVGID_3_);}
	.st3{clip-path:url(#SVGID_5_);}
</style>
<g>
	<defs>
		<rect id="SVGID_1_" x="0" y="317.7" width="1920" height="632.3"/>
	</defs>
	<clipPath id="SVGID_2_">
		<use xlink:href="#SVGID_1_"  style="overflow:visible;"/>
	</clipPath>
	<g class="st0">
		<polyline class="st1" points="452.5,513.2 -385.3,705.1 -385.8,803.7 480.7,598.9 		"/>
		
			<ellipse transform="matrix(0.9733 -0.2293 0.2293 0.9733 -114.79 122.4512)" class="st1" cx="469.4" cy="555.1" rx="35" ry="45.3"/>
		<path class="st1" d="M-318.6,787.1c9.4,31.1,37.1,28.4,37.1,28.4l841.3-200.3l0.4,115.9"/>
		<path class="st1" d="M504.4,545l99.7-22.6c5-1.8,10.3-2.6,15.6-2.2c9.8,0.9,22.4,6.1,22.4,26.9v182.6l-13.3,0.2"/>
		<polyline class="st1" points="1497.4,618.1 1474.9,622.7 1474.9,795.2 1481.1,795.2 1481.1,963.5 356.5,963.5 356.5,1103.1 
			843.1,1189.5 1600.8,1190.7 1600.8,677.4 1497.4,618.1 1497.4,601.5 652.4,748.6 652.4,757.4 		"/>
		<line class="st1" x1="781.6" y1="736.4" x2="816.8" y2="730.6"/>
		<polyline class="st1" points="628.9,730 628.9,750.7 634.8,750.7 634.8,770.6 621.1,770.6 621.1,794.5 629.1,794.5 628.8,778.7 
			643.1,778.7 643.2,758.6 726.1,745.8 726.3,780.9 735.6,779 735.4,743.4 771.8,737.6 772.3,773.7 781.8,773.2 782.3,747.4 
			815.8,741.8 815.8,768.3 826.7,768.3 826.7,730 869,722.5 869.5,760.6 880.4,760.6 880.4,720.2 1027.4,696.2 1027.4,738.6 
			1042.2,738.6 1042.2,693.8 1150.4,675.8 1150.4,762.5 1164.9,762.5 1164.9,673.9 1236.8,662.3 1236.8,864.3 1249.2,864.3 
			1249.2,659.6 1474.9,622.7 		"/>
		<path class="st1" d="M697.6,740.6l-55.4-10.8c0,0-13.1,0.2-13.2,0.2c0,0-43.7-8.4-68.3,0.7c-0.4,0.2-0.5,0.7-0.2,1
			c2.1,1.9,14,5.4,33.3,5.2"/>
		<path class="st1" d="M642.1,729.8l0.3-175.6l51.3-12c0,0,29.6-9.1,29.6,23.3s0,171.5,0,171.5"/>
		<path class="st1" d="M1157.9,964.2c0,0-4.2-21.2,11.7-34.4h177c0,0-12.7,10.6-13.2,33.9l123.2-0.4c0-14.4-3.3-20.9-3.3-20.9
			h-115.9"/>
		<path class="st1" d="M1404.9,931.8h-32.5c0,0-11.8,9.8-11.1,31.4h32.7C1394,963.2,1389.5,943.9,1404.9,931.8z"/>
		<path class="st1" d="M1431.4,963.6"/>
		<path class="st1" d="M1456.5,963.6c-0.5-32.5-12.1-31.2-12.1-31.2c-14.9,0-13,31.2-13,31.2h-28.6c-0.2-23,13.7-31,13.7-31
			l27.9-0.2"/>
		<path class="st1" d="M508.9,964.6c0,0-3-114.7,98.7-144.7l17.2-25c0,0,14.1,0,32.5,9.6v6.4l-0.1-17.8c0,0,22.5,6,34.8,11.6v-13.9
			c0,0,19.1,2.6,36.3,13.1v-23.2c0,0,23.2,0.5,47.4,15.2V773c0,0,30.7,5.2,44.6,15.7v8V769c0,0,24.4,3.9,46.8,19.6l8.9-0.2
			l-1.2-27.9c0,0,26.5,5.5,51.4,23.8l-1.4-28.2c0,0,15.9,1.5,34,19.2c0,0,10.5-1.8,19.8-4.3l-2.1-21.8c0,0,16.8,3.8,30.7,16.6
			c0,0,12.3-0.6,25.8-0.6v-26.8c0,0,39.6,3.2,74.5,51.7"/>
		<path class="st1" d="M878.2,962.9c0,0-13.8-120.5,58.5-175.3"/>
		<path class="st1" d="M825.4,963.1c0,0-6.7-152.9,77.1-175.1"/>
		<path class="st1" d="M771.8,962.4c0,0-9.9-115.3,60.9-164"/>
		<path class="st1" d="M719.5,963.1c0,0-11-146.9,90.9-164.7"/>
		<path class="st1" d="M673,962.8c0,0-9-102.7,64.4-154.4"/>
		<path class="st1" d="M630.1,964.3c0,0-4.8-125.4,78.3-159"/>
		<path class="st1" d="M585.6,962.6c0,0,2-112.1,73.3-149.9"/>
		<path class="st1" d="M548.7,963.6c0,0-4.9-112.4,76-151h34.2c0,0,33.5-10.8,65.7-4.2h12.6c0,0,37-17.8,73.1-10h22.2
			c0,0,26.5-12.5,69.8-10.4l34.3-0.5c0,0,59.6-38.3,112.3-0.4c0,0-63.1-4.6-98.1,68.5c-22.6,47.2-18.7,107.2-18.7,107.2"/>
		<line class="st1" x1="935.4" y1="895.9" x2="1001.9" y2="895.9"/>
		<line class="st1" x1="957.4" y1="842.3" x2="1026.7" y2="842.3"/>
		<line class="st1" x1="991.2" y1="804.8" x2="1068.2" y2="804.8"/>
		<line class="st1" x1="1049" y1="787.1" x2="1109.5" y2="791.2"/>
		<path class="st1" d="M997.1,962.4c0,0-8.6-169.9,127.6-171"/>
		<path class="st1" d="M1014.1,963.2c0,0-6.3-149.6,107.9-160l0.2-13.3"/>
		<line class="st1" x1="1014.3" y1="942.8" x2="1057.5" y2="944.4"/>
		<line class="st1" x1="1016.8" y1="923.3" x2="1058.1" y2="927.6"/>
		<line class="st1" x1="1020.2" y1="903.4" x2="1061.2" y2="912.1"/>
		<line class="st1" x1="1025.8" y1="886.6" x2="1065.3" y2="896.8"/>
		<line class="st1" x1="1032" y1="870.1" x2="1070.3" y2="882.5"/>
		<line class="st1" x1="1040.2" y1="851.4" x2="1075.9" y2="867.9"/>
		<line class="st1" x1="1070.5" y1="821.2" x2="1092.6" y2="849.5"/>
		<line class="st1" x1="1088.1" y1="812.2" x2="1104.3" y2="840.1"/>
		<line class="st1" x1="1104.4" y1="806.1" x2="1115" y2="833.8"/>
		<line class="st1" x1="1120.8" y1="802.7" x2="1127.4" y2="829.1"/>
		<path class="st1" d="M1113,918.8h-28.3c0,0-12,11.1-11.5,44.2"/>
		<path class="st1" d="M1129.1,962.8c0,0-1.6-33.6,16.3-50.8c7.9-7.6,20.2-8.3,28.8-1.5c9.2,7.4,12.5,18.6,12.5,18.6"/>
		<path class="st1" d="M1186.7,929.1l20.7,0.3c0,0-21.3-66-65.6-45.5c-38.5,17.8-33.6,78.5-33.6,78.5"/>
		<path class="st1" d="M473.6,963.1c0,0-0.5-77.7,51.6-114.6l-7.6-13c0,0,17.4-13,44-12l0.9,7.8c0,0,17-4.8,33.9-8"/>
		<polyline class="st1" points="528.4,828.8 528.4,813.7 546.8,813.7 546.8,824 		"/>
		<path class="st1" d="M1157.8,803.9l-15.7,1.4c-3.4,0.3-5.7,3.6-4.7,6.9l5.2,17.4c0.9,3.1-0.4,6.5-3.2,8.2l-14.6,8.6
			c-4.6,2.7-6.6,8.4-4.7,13.5l3.4,8.8c1.5,3.9,5.2,6.6,9.5,6.9l25.8,1.7c3.5,0.2,6.8-1.7,8.4-4.8l0.5-1c1.9-3.7,1.5-8.2-0.8-11.6
			l-5.6-8c-1.6-2.3-2.5-5.1-2.6-8L1157.8,803.9z"/>
		<path class="st1" d="M1209.5,889.7c0,0-23.2-41.6-50.6-42.3"/>
		<polyline class="st1" points="1236.8,864.3 1202.8,897.9 1202.4,918.5 		"/>
		<path class="st1" d="M1249.2,864.3v16l-33.4,24.7l0.4,12l19.9,13.4v-13.5h7.2v-8h4v-8.9h6.6c0-15.4,7.3-18.2,7.3-18.2h56.2
			c22.2,11.7,26.3,46.1,26.3,46.1"/>
		<line class="st1" x1="1333.3" y1="963.7" x2="1333.3" y2="1189.6"/>
		<polyline class="st1" points="1545,1190.9 1545,1119.4 1491,1136.9 1491,1189.5 		"/>
		<polyline class="st1" points="1352.9,1190.2 1352.9,1127.1 1491,1136.9 		"/>
		<polyline class="st1" points="1352.9,1127.1 1422.3,1109.5 1546.9,1118.3 		"/>
		<polyline class="st1" points="1249.2,659.6 1382.9,706.3 1472.6,693.7 		"/>
		<line class="st1" x1="1382.9" y1="706.3" x2="1382.9" y2="932.1"/>
		<path class="st1" d="M546.3,542.9"/>
		<path class="st1" d="M559.9,629.8c0,0,40.4-25,83.4-2"/>
		<path class="st1" d="M555.5,534.1c0,0-27.1,37.7,4.8,78.8"/>
		<path class="st1" d="M-230.8,804.8c0,0,5.1,36.5,39.7,31.8l750.3-175.2"/>
		<path class="st1" d="M515.7,626.5c0,0-8.7,28.5,15.6,41.7"/>
		<circle class="st1" cx="469" cy="555.3" r="12.3"/>
		<line class="st1" x1="469" y1="542.9" x2="469" y2="509.1"/>
		<line class="st1" x1="458.3" y1="560.9" x2="439.4" y2="574"/>
		<line class="st1" x1="478.5" y1="562.9" x2="500.2" y2="582.1"/>
		<path class="st1" d="M1122,803.1c0,0,8.8,2.6,15.3,4.1"/>
		<path class="st1" d="M1142.6,829.6c0,0-33.8-7.1-60.6,28.7l-28-23"/>
		<line class="st1" x1="1157.8" y1="803.9" x2="1157.8" y2="762.1"/>
		<path class="st1" d="M1082.1,858.3c0,0-22.1,30.3-25.1,105"/>
		<path class="st1" d="M1062.4,915.8c0,0,15.4-31.2,35.3-30.8c17.6,0.3,24.1,17.6,24.1,17.6"/>
		<polyline class="st1" points="628.9,730 523.6,750.2 523.6,756.8 529.1,756.8 529.1,796.1 535.8,796.1 535.8,811.1 		"/>
		<path class="st1" d="M1164.9,762.5c0,0,43,12.3,71.3,77.4"/>
		<path class="st1" d="M-271.7,876.9"/>
		<path class="st1" d="M-319.5,791.5"/>
		<path class="st1" d="M369,532.2c0,0-24.6,47.7,27.1,85.9"/>
		<path class="st1" d="M425.1,612.3c0,0-3.9,20.3,15.6,31.6"/>
	</g>
</g>
<linearGradient id="SVGID_3_" gradientUnits="userSpaceOnUse" x1="-388.0943" y1="-551.8867" x2="1875.1085" y2="-551.8867">
	<stop  offset="0" style="stop-color:#93CD8F"/>
	<stop  offset="0.1106" style="stop-color:#89CB8A"/>
	<stop  offset="0.2983" style="stop-color:#6FC67E"/>
	<stop  offset="0.54" style="stop-color:#43BD6B"/>
	<stop  offset="0.8239" style="stop-color:#08B24F"/>
	<stop  offset="0.8576" style="stop-color:#00B04C"/>
</linearGradient>
<rect x="0" y="-1026.9" class="st2" width="1920" height="950"/>
<g>
	<defs>
		<rect id="SVGID_4_" x="0" y="-709.2" width="1920" height="632.3"/>
	</defs>
	<clipPath id="SVGID_5_">
		<use xlink:href="#SVGID_4_"  style="overflow:visible;"/>
	</clipPath>
	<g class="st3">
		<polyline class="st1" points="452.5,-513.6 -385.3,-321.8 -385.8,-223.2 480.7,-427.9 		"/>
		
			<ellipse transform="matrix(0.9733 -0.2293 0.2293 0.9733 120.7196 95.0802)" class="st1" cx="469.4" cy="-471.8" rx="35" ry="45.3"/>
		<path class="st1" d="M-318.6-239.8c9.4,31.1,37.1,28.4,37.1,28.4l841.3-200.3l0.4,115.9"/>
		<path class="st1" d="M504.4-481.9l99.7-22.6c5-1.8,10.3-2.6,15.6-2.2c9.8,0.9,22.4,6.1,22.4,26.9v182.6l-13.3,0.2"/>
		<polyline class="st1" points="1497.4,-408.8 1474.9,-404.2 1474.9,-231.7 1481.1,-231.7 1481.1,-63.4 356.5,-63.4 356.5,76.2 
			843.1,162.6 1600.8,163.8 1600.8,-349.5 1497.4,-408.8 1497.4,-425.4 652.4,-278.3 652.4,-269.5 		"/>
		<line class="st1" x1="781.6" y1="-290.5" x2="816.8" y2="-296.3"/>
		<polyline class="st1" points="628.9,-296.9 628.9,-276.2 634.8,-276.2 634.8,-256.3 621.1,-256.3 621.1,-232.4 629.1,-232.4 
			628.8,-248.1 643.1,-248.1 643.2,-268.3 726.1,-281.1 726.3,-246 735.6,-247.9 735.4,-283.4 771.8,-289.3 772.3,-253.2 
			781.8,-253.7 782.3,-279.5 815.8,-285.1 815.8,-258.6 826.7,-258.6 826.7,-296.9 869,-304.4 869.5,-266.2 880.4,-266.2 
			880.4,-306.7 1027.4,-330.7 1027.4,-288.3 1042.2,-288.3 1042.2,-333.1 1150.4,-351.1 1150.4,-264.4 1164.9,-264.4 1164.9,-353 
			1236.8,-364.6 1236.8,-162.6 1249.2,-162.6 1249.2,-367.3 1474.9,-404.2 		"/>
		<path class="st1" d="M697.6-286.3l-55.4-10.8c0,0-13.1,0.2-13.2,0.2c0,0-43.7-8.4-68.3,0.7c-0.4,0.2-0.5,0.7-0.2,1
			c2.1,1.9,14,5.4,33.3,5.2"/>
		<path class="st1" d="M642.1-297.1l0.3-175.6l51.3-12c0,0,29.6-9.1,29.6,23.3s0,171.5,0,171.5"/>
		<path class="st1" d="M1157.9-62.7c0,0-4.2-21.2,11.7-34.4h177c0,0-12.7,10.6-13.2,33.9l123.2-0.4c0-14.4-3.3-20.9-3.3-20.9h-115.9
			"/>
		<path class="st1" d="M1404.9-95.1h-32.5c0,0-11.8,9.8-11.1,31.4h32.7C1394-63.7,1389.5-83,1404.9-95.1z"/>
		<path class="st1" d="M1431.4-63.3"/>
		<path class="st1" d="M1456.5-63.3c-0.5-32.5-12.1-31.2-12.1-31.2c-14.9,0-13,31.2-13,31.2h-28.6c-0.2-23,13.7-31,13.7-31l27.9-0.2
			"/>
		<path class="st1" d="M508.9-62.2c0,0-3-114.7,98.7-144.7l17.2-25c0,0,14.1,0,32.5,9.6v6.4l-0.1-17.8c0,0,22.5,6,34.8,11.6v-13.9
			c0,0,19.1,2.6,36.3,13.1v-23.2c0,0,23.2,0.5,47.4,15.2v-22.9c0,0,30.7,5.2,44.6,15.7v8v-27.7c0,0,24.4,3.9,46.8,19.6l8.9-0.2
			l-1.2-27.9c0,0,26.5,5.5,51.4,23.8l-1.4-28.2c0,0,15.9,1.5,34,19.2c0,0,10.5-1.8,19.8-4.3l-2.1-21.8c0,0,16.8,3.8,30.7,16.6
			c0,0,12.3-0.6,25.8-0.6v-26.8c0,0,39.6,3.2,74.5,51.7"/>
		<path class="st1" d="M878.2-64c0,0-13.8-120.5,58.5-175.3"/>
		<path class="st1" d="M825.4-63.7c0,0-6.7-152.9,77.1-175.1"/>
		<path class="st1" d="M771.8-64.5c0,0-9.9-115.3,60.9-164"/>
		<path class="st1" d="M719.5-63.7c0,0-11-146.9,90.9-164.7"/>
		<path class="st1" d="M673-64.1c0,0-9-102.7,64.4-154.4"/>
		<path class="st1" d="M630.1-62.6c0,0-4.8-125.4,78.3-159"/>
		<path class="st1" d="M585.6-64.3c0,0,2-112.1,73.3-149.9"/>
		<path class="st1" d="M548.7-63.2c0,0-4.9-112.4,76-151h34.2c0,0,33.5-10.8,65.7-4.2h12.6c0,0,37-17.8,73.1-10h22.2
			c0,0,26.5-12.5,69.8-10.4l34.3-0.5c0,0,59.6-38.3,112.3-0.4c0,0-63.1-4.6-98.1,68.5c-22.6,47.2-18.7,107.2-18.7,107.2"/>
		<line class="st1" x1="935.4" y1="-131" x2="1001.9" y2="-131"/>
		<line class="st1" x1="957.4" y1="-184.6" x2="1026.7" y2="-184.6"/>
		<line class="st1" x1="991.2" y1="-222.1" x2="1068.2" y2="-222.1"/>
		<line class="st1" x1="1049" y1="-239.8" x2="1109.5" y2="-235.7"/>
		<path class="st1" d="M997.1-64.5c0,0-8.6-169.9,127.6-171"/>
		<path class="st1" d="M1014.1-63.7c0,0-6.3-149.6,107.9-160l0.2-13.3"/>
		<line class="st1" x1="1014.3" y1="-84" x2="1057.5" y2="-82.5"/>
		<line class="st1" x1="1016.8" y1="-103.6" x2="1058.1" y2="-99.3"/>
		<line class="st1" x1="1020.2" y1="-123.5" x2="1061.2" y2="-114.8"/>
		<line class="st1" x1="1025.8" y1="-140.3" x2="1065.3" y2="-130"/>
		<line class="st1" x1="1032" y1="-156.8" x2="1070.3" y2="-144.3"/>
		<line class="st1" x1="1040.2" y1="-175.5" x2="1075.9" y2="-159"/>
		<line class="st1" x1="1070.5" y1="-205.6" x2="1092.6" y2="-177.4"/>
		<line class="st1" x1="1088.1" y1="-214.7" x2="1104.3" y2="-186.8"/>
		<line class="st1" x1="1104.4" y1="-220.7" x2="1115" y2="-193.1"/>
		<line class="st1" x1="1120.8" y1="-224.2" x2="1127.4" y2="-197.7"/>
		<path class="st1" d="M1113-108h-28.3c0,0-12,11.1-11.5,44.2"/>
		<path class="st1" d="M1129.1-64.1c0,0-1.6-33.6,16.3-50.8c7.9-7.6,20.2-8.3,28.8-1.5c9.2,7.4,12.5,18.6,12.5,18.6"/>
		<path class="st1" d="M1186.7-97.8l20.7,0.3c0,0-21.3-66-65.6-45.5c-38.5,17.8-33.6,78.5-33.6,78.5"/>
		<path class="st1" d="M473.6-63.8c0,0-0.5-77.7,51.6-114.6l-7.6-13c0,0,17.4-13,44-12l0.9,7.8c0,0,17-4.8,33.9-8"/>
		<polyline class="st1" points="528.4,-198.1 528.4,-213.2 546.8,-213.2 546.8,-202.9 		"/>
		<path class="st1" d="M1157.8-223l-15.7,1.4c-3.4,0.3-5.7,3.6-4.7,6.9l5.2,17.4c0.9,3.1-0.4,6.5-3.2,8.2l-14.6,8.6
			c-4.6,2.7-6.6,8.4-4.7,13.5l3.4,8.8c1.5,3.9,5.2,6.6,9.5,6.9l25.8,1.7c3.5,0.2,6.8-1.7,8.4-4.8l0.5-1c1.9-3.7,1.5-8.2-0.8-11.6
			l-5.6-8c-1.6-2.3-2.5-5.1-2.6-8L1157.8-223z"/>
		<path class="st1" d="M1209.5-137.2c0,0-23.2-41.6-50.6-42.3"/>
		<polyline class="st1" points="1236.8,-162.6 1202.8,-129 1202.4,-108.4 		"/>
		<path class="st1" d="M1249.2-162.6v16l-33.4,24.7l0.4,12l19.9,13.4V-110h7.2v-8h4v-8.9h6.6c0-15.4,7.3-18.2,7.3-18.2h56.2
			c22.2,11.7,26.3,46.1,26.3,46.1"/>
		<line class="st1" x1="1333.3" y1="-63.2" x2="1333.3" y2="162.7"/>
		<polyline class="st1" points="1545,164 1545,92.5 1491,110 1491,162.6 		"/>
		<polyline class="st1" points="1352.9,163.3 1352.9,100.2 1491,110 		"/>
		<polyline class="st1" points="1352.9,100.2 1422.3,82.7 1546.9,91.4 		"/>
		<polyline class="st1" points="1249.2,-367.3 1382.9,-320.5 1472.6,-333.2 		"/>
		<line class="st1" x1="1382.9" y1="-320.5" x2="1382.9" y2="-94.7"/>
		<path class="st1" d="M546.3-484"/>
		<path class="st1" d="M559.9-397c0,0,40.4-25,83.4-2"/>
		<path class="st1" d="M555.5-492.8c0,0-27.1,37.7,4.8,78.8"/>
		<path class="st1" d="M-230.8-222.1c0,0,5.1,36.5,39.7,31.8l750.3-175.2"/>
		<path class="st1" d="M515.7-400.3c0,0-8.7,28.5,15.6,41.7"/>
		<circle class="st1" cx="469" cy="-471.6" r="12.3"/>
		<line class="st1" x1="469" y1="-483.9" x2="469" y2="-517.8"/>
		<line class="st1" x1="458.3" y1="-465.9" x2="439.4" y2="-452.9"/>
		<line class="st1" x1="478.5" y1="-463.9" x2="500.2" y2="-444.8"/>
		<path class="st1" d="M1122-223.7c0,0,8.8,2.6,15.3,4.1"/>
		<path class="st1" d="M1142.6-197.3c0,0-33.8-7.1-60.6,28.7l-28-23"/>
		<line class="st1" x1="1157.8" y1="-223" x2="1157.8" y2="-264.8"/>
		<path class="st1" d="M1082.1-168.6c0,0-22.1,30.3-25.1,105"/>
		<path class="st1" d="M1062.4-111.1c0,0,15.4-31.2,35.3-30.8c17.6,0.3,24.1,17.6,24.1,17.6"/>
		<polyline class="st1" points="628.9,-296.9 523.6,-276.7 523.6,-270.1 529.1,-270.1 529.1,-230.8 535.8,-230.8 535.8,-215.7 		"/>
		<path class="st1" d="M1164.9-264.4c0,0,43,12.3,71.3,77.4"/>
		<path class="st1" d="M-271.7-150"/>
		<path class="st1" d="M-319.5-235.4"/>
		<path class="st1" d="M369-494.7c0,0-24.6,47.7,27.1,85.9"/>
		<path class="st1" d="M425.1-414.6c0,0-3.9,20.3,15.6,31.6"/>
	</g>
</g>
</svg>
