<svg height="325" viewBox="0 0 966 325" width="966" xmlns="http://www.w3.org/2000/svg"><g fill="none" transform="translate(.964649)"><g fill="#000" transform="translate(162.535351 119.7)"><path d="m156.5 77.9c1.1 9.6 8.7 16.6 21.2 16.6 6.5 0 14.9-2.7 19-7.3l11.2 12.2c-7.5 8.5-19.7 12.7-30.4 12.7-24.4 0-38.9-16.6-38.9-41.6 0-23.8 14.7-40.8 37.7-40.8 23.8 0 38.6 16.1 35.9 48.3h-55.6v-.1zm38.6-15.9c-1.1-10.1-8.4-15.2-18.4-15.2-9.5 0-17.2 5.1-19.8 15.2z"/><path d="m422.5 69.5v43.4h-7.8v-112.8h39.2c44 0 44 69.4 0 69.4zm0-61.2v53.2h31.4c30.7 0 33.8-53.2 0-53.2z"/><path d="m488.1 71.4c0-25.5 17.4-41.6 38.9-41.6 21.6 0 38.9 16.3 38.9 41.6s-17.4 41-38.9 41-38.9-15.7-38.9-41zm70.5 0c0-20.7-14.2-34.2-31.4-34.2s-31.4 13.4-31.4 34.2 14.2 33.3 31.4 33.3c17.2-.1 31.4-12.6 31.4-33.3z"/><path d="m648.2 112.1h-7.9l-11.7-35.6-8.7-31.7-9.1 31.8-11.7 35.5h-7.9l-25.7-81.4h7.9l21.8 72.1 22.2-72.1h5.2l21.9 72.1 21.7-72.1h7.9z"/><path d="m676.7 70.7c0-23.8 16.3-41 36.5-41s38.3 13.7 35.5 44.7h-64.7c1.5 18.7 14.4 29.4 29.2 29.4 9.5 0 20.5-4.2 25.9-12.1l5.1 4.6c-7 10.1-19.5 15.3-31 15.3-20.2 0-36.5-15.6-36.5-40.9zm65.5-3.2c-.1-19.5-11.8-30.5-29-30.5-14.8 0-27.6 11.1-29.2 30.6h58.2z"/><path d="m354.7 30.6c-6.2 0-11.3 1-15.6 2.8v-33.3h-17.7v69.5 42.4h17.7v-42.6c.1-14.4 6-20.5 16.3-20.5s15 6.2 15 20.8v42.3h17.7v-42.4c-.1-23.6-8.7-39-33.4-39z"/><path d="m282.3 61.7c-9.5-.6-13.9-3.4-13.9-8.5 0-4.9 4.8-8.7 13.7-8.7 7.1 0 13.2 2.8 18.5 8l10.3-12.6c-8.6-7.9-17.4-10.2-29.1-10.2-13.7 0-31.5 6.3-31.5 24.3 0 17.6 16.8 22.9 30.9 24 10.6.6 13.3 2.8 13.3 8.1 0 5.7-5.3 9.2-12.2 9.1h-15.8-12-3.6c-6.7.1-11.7-3.4-11.7-9.1v-86h-17.7v86.5c0 13.7 12.3 25.5 29.3 25.5h3.7 12 15.8c17.7 0 30.400458-11.8 30.400458-25.5.099542-20.5-16.200458-23.9-30.400458-24.9z"/><path d="m130.8 0-23 74.1-1.3 3.9-1.2-4.1-22.7-73.9h-15.7l-22 73.9-1.1 4.1-1.3-3.9-23.7-74.1h-18.8l36.5 112.1h14.5l22.6-71.3 1.3-3.9 1.2 3.9 23.2 71.3h14.4l35.8-112.1z"/><path d="m802.4 30.1c-2-.2-3.9-.4-5.9-.4-9.2 0-22.5 4.3-27.1 15.3l-.2-14.5h-6.8v81.4h7.1v-47.4c0-14.8 13.6-27.2 27-27.2 2.2 0 4.1.1 5.9.4z"/></g><path d="m168.735351 42.8c-11.1.8-13.5 5.2-24.6 3.6-6.3-.9-11.9-5.2-14.3-8.3-2.4-3.2-8.3-9.1-15.1-11.9s-8.3-4.4-56.4000004 2c-48 6.3-58.3-28.2-58.3-28.2-.7 15.8 9.2 20.7 11.6 33.5 3.2 16.8 35.7 18 35.7 18s-25 16.4-13.8 43.3c11.1 27 40.5 22.2 75.8000004 40.5 35.3 18.3 16.3 66.7 16.3 66.7 23.4-18.3 29-48.8 20.6-69.8-8.3-21-31.5-29.1-31.5-29.1s15.7-2.2 20.8-3c5.2-.8 11.1-.8 18.3.4 7.1 1.2.8 10.3.8 10.3 9.1-1.6 15.1-10.7 15.9-16.3s-4.4-7.9-7.1-7.9c-2.8 0-14.3 5.2-23 7.1-8.7 2-13.8 1.6-19.7-1.5-6.3-3.3-11.8-7.1-11.7-16.4.1-5.2 3.6-10.7 9.5-14.3s19-5.6 32.9.4 21.8 3.6 25.8 1.2 4.8-9.1 4.8-9.1c7.9-5.6 18.2-.8 18.2-.8-10-8.4-20.3-11.2-31.5-10.4zm-59.9 9.7c-5.3-.6-2.3-7.8-2.3-7.8-3.3-.8-4.6-5.8-4.6-5.8 3.3 1.9 13.2 5 15.5 5.8s3 1.7 3 1.7c.2 2.8-6.4 6.7-11.6 6.1z" fill="#dc3d43"/><path d="m124.035351 104.4s18.9 6.2 26.6 27.7c7.7 21.3 2.8 51.6-20.6 69.8 62.3-39.1 23.1-99.9-6-97.5z" fill="#11af4b"/><path d="m126.335351 79.3 105.1-20.2-16.2 16.2 59.9-7.1-96.4 25 16.6-16.7z" fill="#11af4b"/><g fill="#000" transform="translate(198.435351 263.5)"><path d="m0 47v-46.2h13.3c14.8 0 24.7 9.2 24.7 23.1s-9.8 23.1-24.4 23.1zm6.2-40.9v35.9h7.3c10.9 0 18.2-7.2 18.2-17.9s-7.3-17.9-18.5-17.9h-7.1v-.1z"/><path d="m73.4 29.2c0 1.2-.1 2.5-.1 3.1h-23.8v.1c.2 6.3 4.5 10.3 11.2 10.3 4.3 0 8.9-1.2 11.7-3v5.5c-2.5 1.4-6.8 2.7-12 2.7-10.2 0-17-6.8-17-16.9 0-9.7 6.8-16.9 15.8-16.9 9.1 0 14.2 7.1 14.2 15.1zm-14.7-10c-5.5 0-8.8 4.2-9.4 8.8h18c.2-4.5-2.9-8.8-8.6-8.8z"/><path d="m107.5 15-14.4 32.8h-3.2l-14.4-32.9h6.3c3.2 7.8 6.8 16.3 9.7 23.5 2.9-7.2 6.3-15.6 9.7-23.5h6.3z"/><path d="m140.1 29.2c0 1.2-.1 2.5-.1 3.1h-23.8v.1c.2 6.3 4.5 10.3 11.2 10.3 4.3 0 8.9-1.2 11.7-3v5.5c-2.5 1.4-6.8 2.7-12 2.7-10.2 0-17-6.8-17-16.9 0-9.7 6.8-16.9 15.8-16.9 9.1 0 14.2 7.1 14.2 15.1zm-14.6-10c-5.5 0-8.8 4.2-9.4 8.8h18c.2-4.5-2.9-8.8-8.6-8.8z"/><path d="m148.2.9h6v36.7c0 3.5 1.1 4.8 3.7 4.8 1.2 0 2.5-.2 2.9-.4v5.1c-.4.1-2 .6-4.3.6-4.7 0-8.2-2.5-8.2-8.9z"/><path d="m197.8 31c0 9.7-6.9 16.9-16.5 16.9s-16.5-7.1-16.5-16.9 6.9-16.9 16.5-16.9 16.5 7.2 16.5 16.9zm-5.7 0c0-6.8-4.6-11.7-10.8-11.7s-10.7 4.8-10.7 11.7c0 6.8 4.6 11.7 10.7 11.7 6.2 0 10.8-4.9 10.8-11.7z"/><path d="m206.3 15h5.5l.1 3.4c0 1.4-.2 2.4-.2 2.4h.1c1.6-3.4 6.2-6.5 11.4-6.5 8.4 0 14.9 6.8 14.9 16.9s-6.5 16.9-14.8 16.9c-5.2 0-9.4-3-11.2-6.3h-.1s.2 1 .2 2.6v17h-6zm26 16c0-6.7-4-11.7-9.9-11.7-4.8 0-10.1 3.6-10.1 11.7s5.2 11.7 10.1 11.7c6 0 9.9-4.9 9.9-11.7z"/><path d="m247.2 40.6c2.2 0 3.7 1.5 3.7 3.6s-1.5 3.6-3.7 3.6-3.7-1.5-3.7-3.6 1.5-3.6 3.7-3.6z"/><path d="m275.6 47v-46.2h13.3c14.8 0 24.7 9.2 24.7 23.1s-9.8 23.1-24.4 23.1zm6.1-40.9v35.9h7.3c10.9 0 18.2-7.2 18.2-17.9s-7.3-17.9-18.5-17.9h-7.1v-.1z"/><path d="m348.8 29.2c0 1.2-.1 2.5-.1 3.1h-23.8v.1c.2 6.3 4.5 10.3 11.2 10.3 4.3 0 8.9-1.2 11.7-3v5.5c-2.5 1.4-6.8 2.7-12 2.7-10.2 0-17-6.8-17-16.9 0-9.7 6.8-16.9 15.8-16.9 9.2 0 14.2 7.1 14.2 15.1zm-14.5-10c-5.5 0-8.8 4.2-9.4 8.8h18c.1-4.5-2.9-8.8-8.6-8.8z"/><path d="m357 .9h6v36.7c0 3.5 1.1 4.8 3.7 4.8 1.2 0 2.5-.2 2.9-.4v5.1c-.4.1-2 .6-4.3.6-4.7 0-8.2-2.5-8.2-8.9z"/><path d="m379.2 2c2.2 0 3.7 1.5 3.7 3.6s-1.5 3.6-3.7 3.6-3.7-1.5-3.7-3.6 1.5-3.6 3.7-3.6zm3 13v32.1h-6v-32.1z"/><path d="m419.3 15-14.4 32.8h-3.2l-14.4-32.9h6.3c3.2 7.8 6.8 16.3 9.7 23.5 2.9-7.2 6.3-15.6 9.7-23.5h6.3z"/><path d="m452 29.2c0 1.2-.1 2.5-.1 3.1h-23.8v.1c.2 6.3 4.5 10.3 11.2 10.3 4.3 0 8.9-1.2 11.7-3v5.5c-2.5 1.4-6.8 2.7-12 2.7-10.2 0-17-6.8-17-16.9 0-9.7 6.8-16.9 15.8-16.9 9.1 0 14.2 7.1 14.2 15.1zm-14.7-10c-5.5 0-8.8 4.2-9.4 8.8h18c.1-4.5-2.9-8.8-8.6-8.8z"/><path d="m459.6 15h5.6l.1 4.5c.1 1.2-.1 2.2-.1 2.4h.1c1.9-4.6 5.2-7.7 9.9-7.7.9 0 1.6.1 2 .2v5.8c-.2-.1-.9-.2-1.6-.2-6.2 0-9.8 6.8-9.8 13.2v14h-6v-32.1h-.2z"/><path d="m484.6 40.6c2.2 0 3.7 1.5 3.7 3.6s-1.5 3.6-3.7 3.6-3.7-1.5-3.7-3.6 1.5-3.6 3.7-3.6z"/><path d="m520.2 17.6-1.2-1.5v30.9h-6v-47h.1l21 25.6 21-25.6h.1v47h-6v-30.9l-1.2 1.5-13.9 16.8z"/><path d="m565.4 16.5c1.7-1 6.1-2.4 11.3-2.4 9.1 0 13.5 4.3 13.5 12.4v20.5h-5.5l-.1-3.8c-.1-1.5.2-2.6.2-2.6h-.1c-.4.9-4 7.1-11.2 7.1-6 0-10.2-3.5-10.2-9.4 0-7.8 7.6-11.8 21-9.9v-1.6c0-5.6-3.4-7.6-8.4-7.6-4.5 0-8.6 1.5-10.4 2.7v-5.4zm18.7 16.1c-10.4-1.6-14.9 1.1-14.9 5.5 0 2.9 2.1 4.8 5.2 4.8 5.5.2 9.7-5.2 9.7-10.3z"/><path d="m605.6 15 .1 4.5c0 1.4-.2 2.4-.2 2.5h.1c1.2-2.9 5.5-7.7 12.3-7.7 7.9 0 10.9 4.7 10.9 12.7v20.1h-6v-19c0-4.5-.7-8.4-6.1-8.4-6.3 0-10.8 5-10.8 11.5v15.8h-6v-32.1h5.6v.1z"/><path d="m638 16.5c1.7-1 6.1-2.4 11.3-2.4 9.1 0 13.5 4.3 13.5 12.4v20.5h-5.6l-.1-3.8c-.1-1.5.2-2.6.2-2.6h-.1c-.4.9-4 7.1-11.2 7.1-6 0-10.2-3.5-10.2-9.4 0-7.8 7.6-11.8 21-9.9v-1.6c0-5.6-3.4-7.6-8.4-7.6-4.5 0-8.6 1.5-10.4 2.7zm18.7 16.1c-10.4-1.6-14.9 1.1-14.9 5.5 0 2.9 2.1 4.8 5.2 4.8 5.5.2 9.7-5.2 9.7-10.3z"/><path d="m686.7 42.1c8.2.9 12.8 3.4 12.8 9.2 0 6.2-6.3 9.9-15.4 9.9-8.7 0-14.6-3-14.6-8.7 0-3.8 4-6.9 8.8-7.9-3.1-.4-5-2-5-4.1 0-1.9 1.6-3.6 4.5-4.5-4.6-1.6-7.6-5.5-7.6-10.4 0-6.7 5.7-11.4 13-11.4 1.7 0 3.6.2 5.1.7h11.7v4.5h-4.5c-.9 0-1.7-.2-1.7-.2l-.4-.1c1.7 1.6 2.9 3.8 2.9 6.5 0 6.3-5 10.8-11.8 11.2h-.1c-2.9.2-5.2 1.4-5.2 2.6 0 1.5 1.9 2 7.5 2.7zm6.7 9.5c0-3-2.6-5.2-9.8-5.2-5 0-8.6 2.5-8.6 5.3 0 3.4 3.7 5.1 8.9 5.1 5.9 0 9.5-2.1 9.5-5.2zm-2.7-25.9c0-4-3-6.9-7.6-6.9-4.3 0-7.4 3-7.4 6.9s3.1 6.8 7.4 6.8c4.5 0 7.6-2.8 7.6-6.8z"/><path d="m733.9 29.2c0 1.2-.1 2.5-.1 3.1h-23.8v.1c.2 6.3 4.5 10.3 11.2 10.3 4.3 0 8.9-1.2 11.7-3v5.5c-2.5 1.4-6.8 2.7-12 2.7-10.2 0-17-6.8-17-16.9 0-9.7 6.8-16.9 15.8-16.9 9.1 0 14.2 7.1 14.2 15.1zm-14.7-10c-5.5 0-8.8 4.2-9.4 8.8h18.1c.1-4.5-3-8.8-8.7-8.8z"/><path d="m742.8 40.6c2.2 0 3.7 1.5 3.7 3.6s-1.5 3.6-3.7 3.6-3.7-1.5-3.7-3.6 1.5-3.6 3.7-3.6z"/></g></g></svg>