<?xml version="1.0" encoding="utf-8"?>
<!-- Generator: Adobe Illustrator 25.3.1, SVG Export Plug-In . SVG Version: 6.00 Build 0)  -->
<svg version="1.1" id="Layer_1" xmlns="http://www.w3.org/2000/svg" xmlns:xlink="http://www.w3.org/1999/xlink" x="0px" y="0px"
	 width="3667.5px" height="1655.6px" viewBox="0 0 3667.5 1655.6" style="enable-background:new 0 0 3667.5 1655.6;"
	 xml:space="preserve">
<style type="text/css">
	.st0{fill:none;stroke:#6BA96D;stroke-width:9;stroke-miterlimit:10;}
	.st1{fill:none;stroke:#BF4298;stroke-width:0.75;stroke-miterlimit:10;}
	.st2{fill:none;stroke:#6BA96D;stroke-width:4;stroke-miterlimit:10;}
	.st3{clip-path:url(#SVGID_2_);}
	.st4{clip-path:url(#SVGID_2_);fill:url(#SVGID_3_);}
	.st5{fill:url(#SVGID_4_);}
	.st6{fill:url(#SVGID_5_);}
	.st7{clip-path:url(#SVGID_2_);fill:url(#SVGID_6_);}
	.st8{clip-path:url(#SVGID_2_);fill:url(#SVGID_7_);}
	.st9{clip-path:url(#SVGID_2_);fill:url(#SVGID_8_);}
	.st10{clip-path:url(#SVGID_2_);fill:url(#SVGID_9_);}
	.st11{clip-path:url(#SVGID_2_);fill:#5B93A8;stroke:#5B93A8;stroke-width:1.8844;stroke-miterlimit:10;}
	.st12{clip-path:url(#SVGID_2_);fill:url(#SVGID_10_);}
</style>
<path class="st0" d="M150.5-994.3"/>
<line class="st1" x1="-3210.2" y1="1486.7" x2="-3144.4" y2="1486.7"/>
<path class="st2" d="M-1361.6,2845"/>
<g>
	<defs>
		<path id="SVGID_1_" d="M807.1,151.5c-596,66-61.4,358.8-136.6,519.4C609.6,801,323.2,793.2,355.7,979.7
			c32.6,187.1,124.2,422.4,661.3,200.5c380.2-157.1,211.1,177.8,562.3,279.6c1021.7,296.3,1769.3-132.1,1588-446.2
			c-363.8-630.3,435.9-343.1,27.7-899.6c-171.8-234.2-1246.2,76.7-1246.2,76.7s-377.5,19-696-81.1
			C1244.4,107,807.1,151.5,807.1,151.5z"/>
	</defs>
	<clipPath id="SVGID_2_">
		<use xlink:href="#SVGID_1_"  style="overflow:visible;"/>
	</clipPath>
	<g id="WIuDCr.tif_1_" class="st3">
		
			<image style="overflow:visible;" width="400" height="400" id="Layer_0_2_" xlink:href="83DD77306F5B8D7C.png"  transform="matrix(3.2938 0 0 2.9691 -1710.426 57.9846)">
		</image>
	</g>
	
		<linearGradient id="SVGID_3_" gradientUnits="userSpaceOnUse" x1="1712.2136" y1="396.5923" x2="1712.2136" y2="560.2639" gradientTransform="matrix(1 2.639377e-03 -2.639377e-03 1 1.7453 3.7413)">
		<stop  offset="3.340683e-02" style="stop-color:#EEB963"/>
		<stop  offset="0.3406" style="stop-color:#EAB964"/>
		<stop  offset="0.6069" style="stop-color:#E4BC67"/>
		<stop  offset="0.8572" style="stop-color:#DBC16D"/>
		<stop  offset="0.9974" style="stop-color:#D4C472"/>
	</linearGradient>
	<path class="st4" d="M1579.4,492.2c0,0,24.7-83.2,131.4-87.3c106.7-4.1,135.1,102.6,135.1,102.6l-146.9,60.9L1579.4,492.2z"/>
	<g class="st3">
		
			<linearGradient id="SVGID_4_" gradientUnits="userSpaceOnUse" x1="995.6118" y1="150.7851" x2="995.6118" y2="326.4533" gradientTransform="matrix(0.6145 -5.255464e-02 1.389211e-02 0.8344 827.2828 337.4729)">
			<stop  offset="3.340683e-02" style="stop-color:#BDE0BE"/>
			<stop  offset="0.6104" style="stop-color:#B3D4B4"/>
			<stop  offset="1" style="stop-color:#ACCCAE"/>
		</linearGradient>
		<path class="st5" d="M1644.9,530.2c-32.2-24.6-81.3-85.9-112.6-97.9c-36.7-14-70.2-21.6-112.2-19.5
			c-31.6,1.5-148.1,53.9-179.6,55.5c0,0,149.9,93,248.8,85.3C1588.2,546,1644.9,530.2,1644.9,530.2z"/>
	</g>
	<g class="st3">
		<linearGradient id="SVGID_5_" gradientUnits="userSpaceOnUse" x1="2000.845" y1="214.5544" x2="1987.2329" y2="759.038">
			<stop  offset="3.472959e-02" style="stop-color:#E0EFD2"/>
			<stop  offset="0.213" style="stop-color:#D8E9CC"/>
			<stop  offset="0.4956" style="stop-color:#C3DCBD"/>
			<stop  offset="0.8451" style="stop-color:#A0C9A6"/>
			<stop  offset="0.9974" style="stop-color:#8FC19C"/>
		</linearGradient>
		<path class="st6" d="M2737.6,465.5c-168-31.9-538.4-183.2-693.6-117.1c-56.4,24-171.5,124.7-231,141.6
			c-61.6,17.5-207.1,22-269.3,38.1c-106.6,27.6-211.3,72.2-297.1,135.5c0,0,342.2,185.8,791.6-2.2S2737.6,465.5,2737.6,465.5z"/>
	</g>
	<linearGradient id="SVGID_6_" gradientUnits="userSpaceOnUse" x1="1151.3951" y1="-105.9094" x2="1227.0309" y2="560.1727">
		<stop  offset="3.340683e-02" style="stop-color:#87CA93"/>
		<stop  offset="0.9974" style="stop-color:#7BB886"/>
	</linearGradient>
	<path class="st7" d="M387.4,174.7C1383,23.4,1411.6,588.6,2190.1,633.9c210.9,4.9,110.9,140.4,103,140.4
		c-7.9,0-1185.4-76.2-1201.2-76.2c-15.8,0-599.3,0-599.3,0s-343.2-100-343.2-114.2S387.4,174.7,387.4,174.7z"/>
	<linearGradient id="SVGID_7_" gradientUnits="userSpaceOnUse" x1="2777.4885" y1="228.3262" x2="2832.7227" y2="490.0881">
		<stop  offset="3.340683e-02" style="stop-color:#87CA93"/>
		<stop  offset="0.9974" style="stop-color:#7BB886"/>
	</linearGradient>
	<path class="st8" d="M1818.9,723.5c391.4-95.9,528.2-465.4,841.5-519.3c586.1-100.8,830.3,415.8,1234.2,408.7
		c403.9-7.1-641.5,857.7-641.5,857.7s-1360.4-221.3-1378.5-233.2S1818.9,723.5,1818.9,723.5z"/>
	<linearGradient id="SVGID_8_" gradientUnits="userSpaceOnUse" x1="2669.7812" y1="431.9019" x2="2718.3811" y2="889.7658">
		<stop  offset="3.340683e-02" style="stop-color:#64C083"/>
		<stop  offset="0.9827" style="stop-color:#55A971"/>
	</linearGradient>
	<path class="st9" d="M2045,766.7c150.5-114.2,706.5-362.1,1081.4-300.2s211.2,728.1,211.2,728.1s-438.2,120.2-451.4,115.4
		s-633.6-183.2-633.6-183.2L2045,766.7z"/>
	<linearGradient id="SVGID_9_" gradientUnits="userSpaceOnUse" x1="1647.5828" y1="782.7174" x2="1628.0864" y2="1233.5702">
		<stop  offset="3.340683e-02" style="stop-color:#64C083"/>
		<stop  offset="0.9827" style="stop-color:#55A971"/>
	</linearGradient>
	<path class="st10" d="M3424.7,1369.7C1721.7,422.5,1743,874.4,1320.6,591.2C1046.3,407.3,610.5,266.4,299,551.9
		s-462,418.8-462,418.8l1400.1,625.9c0,0,1584.4,228.1,1439.2-43.2C2668.9,1539.7,3424.7,1369.7,3424.7,1369.7z"/>
	<path class="st11" d="M1920.1,681.6c-520.3,94.7,121.8,60.7,173,108.3c51.2,47.6-777.6,203.5-883.2,455.7
		c-105.6,252.3,260.5,319.3,424.9,333.8c546.5,48.2,1132.6-69.6,1132.6-69.6c-368.3-378.4-1184-224.9-760.3-535.7
		c184.5-135.3,218.2-200.8,3.5-235c-158.2-25.1-74.8-54.9-74.8-54.9l21-10.4L1920.1,681.6z"/>
	<linearGradient id="SVGID_10_" gradientUnits="userSpaceOnUse" x1="1048.2751" y1="349.5854" x2="960.7217" y2="910.4003">
		<stop  offset="3.340683e-02" style="stop-color:#64C083"/>
		<stop  offset="0.9827" style="stop-color:#55A971"/>
	</linearGradient>
	<path class="st12" d="M1209.9,1245.6c105.6-252.3,933.2-407.8,882-455.4c-18.6-17.3-59.5-28.2-100.7-38.4
		c-259.7-61.4-356.4-13.1-605.9-141.6c-296.9-152.9-656.6-428.3-968.1-142.8C105.7,753.1-164.2,971.1-164.2,971.1L1235.9,1597
		c0,0-49.3-89.9,90-130.4C1205.1,1406.4,1134.9,1424.7,1209.9,1245.6z"/>
</g>
</svg>
